<?xml version='1.0' encoding='UTF-8' standalone='no'?>
<svg height="432pt" width="576pt" xmlns:xlink="http://www.w3.org/1999/xlink" xmlns="http://www.w3.org/2000/svg" viewBox="0 0 576 432">
 <title>gl2ps_renderer figure</title>
 <desc>
Creator: GL2PS 1.4.0, (C) 1999-2017 C. Geuzaine
For: Octave
CreationDate: Thu May 25 17:45:07 2023
</desc>
 <defs/>
 <polygon points="0,0 576,0 576,432 0,432" fill="#ffffff"/>
 <g>
  <polygon points="0,432 576,432 576,0 0,0" shape-rendering="crispEdges" fill="#ffffff"/>
  <clipPath id="cp00576432">
   <polygon points="0,432 576,432 576,0 0,0"/>
  </clipPath>
  <g clip-path="url(#cp00576432)">
   <polygon points="74.8799,384.48 521.28,384.48 521.28,32.3999 74.8799,32.3999" shape-rendering="crispEdges" fill="#ffffff"/>
   <polyline stroke-linejoin="miter" points="74.8799,384.48 74.8799,380.015" stroke="#262626" stroke-linecap="butt" stroke-width="0.5" fill="none"/>
   <polyline stroke-linejoin="miter" points="74.8799,32.3999 74.8799,36.8652" stroke="#262626" stroke-linecap="butt" stroke-width="0.5" fill="none"/>
   <polyline stroke-linejoin="miter" points="149.28,384.48 149.28,380.015" stroke="#262626" stroke-linecap="butt" stroke-width="0.5" fill="none"/>
   <polyline stroke-linejoin="miter" points="149.28,32.3999 149.28,36.8652" stroke="#262626" stroke-linecap="butt" stroke-width="0.5" fill="none"/>
   <polyline stroke-linejoin="miter" points="223.68,384.48 223.68,380.015" stroke="#262626" stroke-linecap="butt" stroke-width="0.5" fill="none"/>
   <polyline stroke-linejoin="miter" points="223.68,32.3999 223.68,36.8652" stroke="#262626" stroke-linecap="butt" stroke-width="0.5" fill="none"/>
   <polyline stroke-linejoin="miter" points="298.08,384.48 298.08,380.015" stroke="#262626" stroke-linecap="butt" stroke-width="0.5" fill="none"/>
   <polyline stroke-linejoin="miter" points="298.08,32.3999 298.08,36.8652" stroke="#262626" stroke-linecap="butt" stroke-width="0.5" fill="none"/>
   <polyline stroke-linejoin="miter" points="372.48,384.48 372.48,380.015" stroke="#262626" stroke-linecap="butt" stroke-width="0.5" fill="none"/>
   <polyline stroke-linejoin="miter" points="372.48,32.3999 372.48,36.8652" stroke="#262626" stroke-linecap="butt" stroke-width="0.5" fill="none"/>
   <polyline stroke-linejoin="miter" points="446.88,384.48 446.88,380.015" stroke="#262626" stroke-linecap="butt" stroke-width="0.5" fill="none"/>
   <polyline stroke-linejoin="miter" points="446.88,32.3999 446.88,36.8652" stroke="#262626" stroke-linecap="butt" stroke-width="0.5" fill="none"/>
   <polyline stroke-linejoin="miter" points="521.28,384.48 521.28,380.015" stroke="#262626" stroke-linecap="butt" stroke-width="0.5" fill="none"/>
   <polyline stroke-linejoin="miter" points="521.28,32.3999 521.28,36.8652" stroke="#262626" stroke-linecap="butt" stroke-width="0.5" fill="none"/>
   <text font-family="FreeSans" font-style="normal" font-weight="normal" xml:space="preserve" font-size="10" transform="translate(67.38,399.982) rotate(-0,7.5,-8)">
    <tspan x="0 3 9 " y="-0" fill="rgb(38,38,38)">-20</tspan>
   </text>
   <text font-family="FreeSans" font-style="normal" font-weight="normal" xml:space="preserve" font-size="10" transform="translate(146.28,399.982) rotate(-0,3,-8)">
    <tspan x="0 " y="-0" fill="rgb(38,38,38)">0</tspan>
   </text>
   <text font-family="FreeSans" font-style="normal" font-weight="normal" xml:space="preserve" font-size="10" transform="translate(217.68,399.982) rotate(-0,6,-8)">
    <tspan x="0 6 " y="-0" fill="rgb(38,38,38)">20</tspan>
   </text>
   <text font-family="FreeSans" font-style="normal" font-weight="normal" xml:space="preserve" font-size="10" transform="translate(292.08,399.982) rotate(-0,6,-8)">
    <tspan x="0 6 " y="-0" fill="rgb(38,38,38)">40</tspan>
   </text>
   <text font-family="FreeSans" font-style="normal" font-weight="normal" xml:space="preserve" font-size="10" transform="translate(366.48,399.982) rotate(-0,6,-8)">
    <tspan x="0 6 " y="-0" fill="rgb(38,38,38)">60</tspan>
   </text>
   <text font-family="FreeSans" font-style="normal" font-weight="normal" xml:space="preserve" font-size="10" transform="translate(440.88,399.982) rotate(-0,6,-8)">
    <tspan x="0 6 " y="-0" fill="rgb(38,38,38)">80</tspan>
   </text>
   <text font-family="FreeSans" font-style="normal" font-weight="normal" xml:space="preserve" font-size="10" transform="translate(512.28,399.982) rotate(-0,9,-8)">
    <tspan x="0 6 12 " y="-0" fill="rgb(38,38,38)">100</tspan>
   </text>
   <polyline stroke-linejoin="miter" points="74.8799,384.48 79.3481,384.48" stroke="#262626" stroke-linecap="butt" stroke-width="0.5" fill="none"/>
   <polyline stroke-linejoin="miter" points="521.28,384.48 516.812,384.48" stroke="#262626" stroke-linecap="butt" stroke-width="0.5" fill="none"/>
   <polyline stroke-linejoin="miter" points="74.8799,314.064 79.3481,314.064" stroke="#262626" stroke-linecap="butt" stroke-width="0.5" fill="none"/>
   <polyline stroke-linejoin="miter" points="521.28,314.064 516.812,314.064" stroke="#262626" stroke-linecap="butt" stroke-width="0.5" fill="none"/>
   <polyline stroke-linejoin="miter" points="74.8799,243.648 79.3481,243.648" stroke="#262626" stroke-linecap="butt" stroke-width="0.5" fill="none"/>
   <polyline stroke-linejoin="miter" points="521.28,243.648 516.812,243.648" stroke="#262626" stroke-linecap="butt" stroke-width="0.5" fill="none"/>
   <polyline stroke-linejoin="miter" points="74.8799,173.232 79.3481,173.232" stroke="#262626" stroke-linecap="butt" stroke-width="0.5" fill="none"/>
   <polyline stroke-linejoin="miter" points="521.28,173.232 516.812,173.232" stroke="#262626" stroke-linecap="butt" stroke-width="0.5" fill="none"/>
   <polyline stroke-linejoin="miter" points="74.8799,102.816 79.3481,102.816" stroke="#262626" stroke-linecap="butt" stroke-width="0.5" fill="none"/>
   <polyline stroke-linejoin="miter" points="521.28,102.816 516.812,102.816" stroke="#262626" stroke-linecap="butt" stroke-width="0.5" fill="none"/>
   <polyline stroke-linejoin="miter" points="74.8799,32.3999 79.3481,32.3999" stroke="#262626" stroke-linecap="butt" stroke-width="0.5" fill="none"/>
   <polyline stroke-linejoin="miter" points="521.28,32.3999 516.812,32.3999" stroke="#262626" stroke-linecap="butt" stroke-width="0.5" fill="none"/>
   <text font-family="FreeSans" font-style="normal" font-weight="normal" xml:space="preserve" font-size="10" transform="translate(63.8755,388.48) rotate(-0,6,-4)">
    <tspan x="0 " y="-0" fill="rgb(38,38,38)">0</tspan>
   </text>
   <text font-family="FreeSans" font-style="normal" font-weight="normal" xml:space="preserve" font-size="10" transform="translate(57.8755,318.064) rotate(-0,12,-4)">
    <tspan x="0 6 " y="-0" fill="rgb(38,38,38)">20</tspan>
   </text>
   <text font-family="FreeSans" font-style="normal" font-weight="normal" xml:space="preserve" font-size="10" transform="translate(57.8755,247.648) rotate(-0,12,-4)">
    <tspan x="0 6 " y="-0" fill="rgb(38,38,38)">40</tspan>
   </text>
   <text font-family="FreeSans" font-style="normal" font-weight="normal" xml:space="preserve" font-size="10" transform="translate(57.8755,177.232) rotate(-0,12,-4)">
    <tspan x="0 6 " y="-0" fill="rgb(38,38,38)">60</tspan>
   </text>
   <text font-family="FreeSans" font-style="normal" font-weight="normal" xml:space="preserve" font-size="10" transform="translate(57.8755,106.816) rotate(-0,12,-4)">
    <tspan x="0 6 " y="-0" fill="rgb(38,38,38)">80</tspan>
   </text>
   <text font-family="FreeSans" font-style="normal" font-weight="normal" xml:space="preserve" font-size="10" transform="translate(51.8755,36.4) rotate(-0,18,-4)">
    <tspan x="0 6 12 " y="-0" fill="rgb(38,38,38)">100</tspan>
   </text>
   <polyline stroke-linejoin="miter" points="74.8799,384.48 521.28,384.48" stroke="#262626" stroke-linecap="square" stroke-dasharray="16,0" stroke-width="0.5" fill="none"/>
   <polyline stroke-linejoin="miter" points="74.8799,32.3999 521.28,32.3999" stroke="#262626" stroke-linecap="square" stroke-dasharray="16,0" stroke-width="0.5" fill="none"/>
   <polyline stroke-linejoin="miter" points="74.8799,384.48 74.8799,32.3999" stroke="#262626" stroke-linecap="square" stroke-dasharray="16,0" stroke-width="0.5" fill="none"/>
   <polyline stroke-linejoin="miter" points="521.28,384.48 521.28,32.3999" stroke="#262626" stroke-linecap="square" stroke-dasharray="16,0" stroke-width="0.5" fill="none"/>
   <polyline stroke-linejoin="miter" points="273.231,111.637 279.231,111.637" stroke="#ff0000" stroke-linecap="square" stroke-width="0.5" fill="none"/>
   <polyline stroke-linejoin="miter" points="276.231,108.637 276.231,114.637" stroke="#ff0000" stroke-linecap="square" stroke-width="0.5" fill="none"/>
   <polyline stroke-linejoin="miter" points="274.11,109.515 278.353,113.758" stroke="#ff0000" stroke-linecap="square" stroke-width="0.5" fill="none"/>
   <polyline stroke-linejoin="miter" points="274.11,113.758 278.353,109.515" stroke="#ff0000" stroke-linecap="square" stroke-width="0.5" fill="none"/>
   <polyline stroke-linejoin="miter" points="323.275,119.127 329.275,119.127" stroke="#ff0000" stroke-linecap="square" stroke-width="0.5" fill="none"/>
   <polyline stroke-linejoin="miter" points="326.275,116.127 326.275,122.127" stroke="#ff0000" stroke-linecap="square" stroke-width="0.5" fill="none"/>
   <polyline stroke-linejoin="miter" points="324.154,117.006 328.396,121.249" stroke="#ff0000" stroke-linecap="square" stroke-width="0.5" fill="none"/>
   <polyline stroke-linejoin="miter" points="324.154,121.249 328.396,117.006" stroke="#ff0000" stroke-linecap="square" stroke-width="0.5" fill="none"/>
   <polyline stroke-linejoin="miter" points="206.449,185.557 212.449,185.557" stroke="#ff0000" stroke-linecap="square" stroke-width="0.5" fill="none"/>
   <polyline stroke-linejoin="miter" points="209.449,182.557 209.449,188.557" stroke="#ff0000" stroke-linecap="square" stroke-width="0.5" fill="none"/>
   <polyline stroke-linejoin="miter" points="207.328,183.436 211.57,187.678" stroke="#ff0000" stroke-linecap="square" stroke-width="0.5" fill="none"/>
   <polyline stroke-linejoin="miter" points="207.328,187.678 211.57,183.436" stroke="#ff0000" stroke-linecap="square" stroke-width="0.5" fill="none"/>
   <polyline stroke-linejoin="miter" points="489.785,33.7417 495.785,33.7417" stroke="#ff0000" stroke-linecap="square" stroke-width="0.5" fill="none"/>
   <polyline stroke-linejoin="miter" points="492.785,30.7417 492.785,36.7417" stroke="#ff0000" stroke-linecap="square" stroke-width="0.5" fill="none"/>
   <polyline stroke-linejoin="miter" points="490.664,31.6201 494.906,35.8628" stroke="#ff0000" stroke-linecap="square" stroke-width="0.5" fill="none"/>
   <polyline stroke-linejoin="miter" points="490.664,35.8628 494.906,31.6201" stroke="#ff0000" stroke-linecap="square" stroke-width="0.5" fill="none"/>
   <polyline stroke-linejoin="miter" points="345.146,344.769 351.146,344.769" stroke="#ff0000" stroke-linecap="square" stroke-width="0.5" fill="none"/>
   <polyline stroke-linejoin="miter" points="348.146,341.769 348.146,347.769" stroke="#ff0000" stroke-linecap="square" stroke-width="0.5" fill="none"/>
   <polyline stroke-linejoin="miter" points="346.025,342.648 350.268,346.891" stroke="#ff0000" stroke-linecap="square" stroke-width="0.5" fill="none"/>
   <polyline stroke-linejoin="miter" points="346.025,346.891 350.268,342.648" stroke="#ff0000" stroke-linecap="square" stroke-width="0.5" fill="none"/>
   <polyline stroke-linejoin="miter" points="224.205,251.36 230.205,251.36" stroke="#ff0000" stroke-linecap="square" stroke-width="0.5" fill="none"/>
   <polyline stroke-linejoin="miter" points="227.205,248.36 227.205,254.36" stroke="#ff0000" stroke-linecap="square" stroke-width="0.5" fill="none"/>
   <polyline stroke-linejoin="miter" points="225.083,249.239 229.326,253.482" stroke="#ff0000" stroke-linecap="square" stroke-width="0.5" fill="none"/>
   <polyline stroke-linejoin="miter" points="225.083,253.482 229.326,249.239" stroke="#ff0000" stroke-linecap="square" stroke-width="0.5" fill="none"/>
   <polyline stroke-linejoin="miter" points="183.442,252.362 189.442,252.362" stroke="#ff0000" stroke-linecap="square" stroke-width="0.5" fill="none"/>
   <polyline stroke-linejoin="miter" points="186.442,249.362 186.442,255.362" stroke="#ff0000" stroke-linecap="square" stroke-width="0.5" fill="none"/>
   <polyline stroke-linejoin="miter" points="184.321,250.241 188.564,254.483" stroke="#ff0000" stroke-linecap="square" stroke-width="0.5" fill="none"/>
   <polyline stroke-linejoin="miter" points="184.321,254.483 188.564,250.241" stroke="#ff0000" stroke-linecap="square" stroke-width="0.5" fill="none"/>
   <polyline stroke-linejoin="miter" points="228.735,313.232 234.735,313.232" stroke="#ff0000" stroke-linecap="square" stroke-width="0.5" fill="none"/>
   <polyline stroke-linejoin="miter" points="231.735,310.232 231.735,316.232" stroke="#ff0000" stroke-linecap="square" stroke-width="0.5" fill="none"/>
   <polyline stroke-linejoin="miter" points="229.614,311.111 233.857,315.353" stroke="#ff0000" stroke-linecap="square" stroke-width="0.5" fill="none"/>
   <polyline stroke-linejoin="miter" points="229.614,315.353 233.857,311.111" stroke="#ff0000" stroke-linecap="square" stroke-width="0.5" fill="none"/>
   <polyline stroke-linejoin="miter" points="186.141,149.511 192.141,149.511" stroke="#ff0000" stroke-linecap="square" stroke-width="0.5" fill="none"/>
   <polyline stroke-linejoin="miter" points="189.141,146.511 189.141,152.511" stroke="#ff0000" stroke-linecap="square" stroke-width="0.5" fill="none"/>
   <polyline stroke-linejoin="miter" points="187.02,147.39 191.262,151.632" stroke="#ff0000" stroke-linecap="square" stroke-width="0.5" fill="none"/>
   <polyline stroke-linejoin="miter" points="187.02,151.632 191.262,147.39" stroke="#ff0000" stroke-linecap="square" stroke-width="0.5" fill="none"/>
   <polyline stroke-linejoin="miter" points="467.143,109.788 473.143,109.788" stroke="#ff0000" stroke-linecap="square" stroke-width="0.5" fill="none"/>
   <polyline stroke-linejoin="miter" points="470.143,106.788 470.143,112.788" stroke="#ff0000" stroke-linecap="square" stroke-width="0.5" fill="none"/>
   <polyline stroke-linejoin="miter" points="468.022,107.667 472.265,111.91" stroke="#ff0000" stroke-linecap="square" stroke-width="0.5" fill="none"/>
   <polyline stroke-linejoin="miter" points="468.022,111.91 472.265,107.667" stroke="#ff0000" stroke-linecap="square" stroke-width="0.5" fill="none"/>
   <polyline stroke-linejoin="round" points="307.905,105.696 307.332,107.46 305.832,108.55 303.978,108.55 302.478,107.46 301.905,105.696 302.478,103.933 303.978,102.843 305.832,102.843 307.332,103.933 307.905,105.696" stroke="#0000ff" stroke-linecap="round" stroke-width="0.5" fill="none"/>
   <polyline stroke-linejoin="round" points="208.667,357.214 208.094,358.977 206.594,360.067 204.74,360.067 203.24,358.977 202.667,357.214 203.24,355.451 204.74,354.361 206.594,354.361 208.094,355.451 208.667,357.214" stroke="#0000ff" stroke-linecap="round" stroke-width="0.5" fill="none"/>
   <polyline stroke-linejoin="round" points="374.183,62.0371 373.61,63.8008 372.11,64.8906 370.256,64.8906 368.756,63.8008 368.183,62.0371 368.756,60.2739 370.256,59.1841 372.11,59.1841 373.61,60.2739 374.183,62.0371" stroke="#0000ff" stroke-linecap="round" stroke-width="0.5" fill="none"/>
   <polyline stroke-linejoin="round" points="183.611,70.9214 183.038,72.6851 181.538,73.7749 179.684,73.7749 178.184,72.6851 177.611,70.9214 178.184,69.1582 179.684,68.0684 181.538,68.0684 183.038,69.1582 183.611,70.9214" stroke="#0000ff" stroke-linecap="round" stroke-width="0.5" fill="none"/>
   <polyline stroke-linejoin="round" points="413.914,268.222 413.341,269.985 411.841,271.075 409.987,271.075 408.487,269.985 407.914,268.222 408.487,266.458 409.987,265.368 411.841,265.368 413.341,266.458 413.914,268.222" stroke="#0000ff" stroke-linecap="round" stroke-width="0.5" fill="none"/>
   <polyline stroke-linejoin="round" points="397.147,242.228 396.574,243.991 395.074,245.081 393.22,245.081 391.72,243.991 391.147,242.228 391.72,240.464 393.22,239.375 395.074,239.375 396.574,240.464 397.147,242.228" stroke="#0000ff" stroke-linecap="round" stroke-width="0.5" fill="none"/>
   <polyline stroke-linejoin="round" points="257.068,248.173 256.495,249.936 254.995,251.026 253.141,251.026 251.641,249.936 251.068,248.173 251.641,246.409 253.141,245.319 254.995,245.319 256.495,246.409 257.068,248.173" stroke="#0000ff" stroke-linecap="round" stroke-width="0.5" fill="none"/>
   <polyline stroke-linejoin="round" points="513.161,156.955 512.588,158.718 511.088,159.808 509.234,159.808 507.734,158.718 507.161,156.955 507.734,155.191 509.234,154.102 511.088,154.102 512.588,155.191 513.161,156.955" stroke="#0000ff" stroke-linecap="round" stroke-width="0.5" fill="none"/>
   <polyline stroke-linejoin="round" points="276.991,382.404 276.417,384.167 274.917,385.257 273.063,385.257 271.563,384.167 270.991,382.404 271.563,380.641 273.063,379.551 274.917,379.551 276.417,380.641 276.991,382.404" stroke="#0000ff" stroke-linecap="round" stroke-width="0.5" fill="none"/>
   <polyline stroke-linejoin="round" points="455.565,68.4565 454.992,70.2197 453.492,71.3096 451.638,71.3096 450.138,70.2197 449.565,68.4565 450.138,66.6929 451.638,65.6035 453.492,65.6035 454.992,66.6929 455.565,68.4565" stroke="#0000ff" stroke-linecap="round" stroke-width="0.5" fill="none"/>
   <polyline stroke-linejoin="round" points="249.796,72.8555 249.224,74.6187 247.724,75.7085 245.87,75.7085 244.37,74.6187 243.796,72.8555 244.37,71.0918 245.87,70.002 247.724,70.002 249.224,71.0918 249.796,72.8555" stroke="#0000ff" stroke-linecap="round" stroke-width="0.5" fill="none"/>
   <polyline stroke-linejoin="round" points="162.976,263.333 162.403,265.097 160.903,266.187 159.049,266.187 157.549,265.097 156.976,263.333 157.549,261.57 159.049,260.48 160.903,260.48 162.403,261.57 162.976,263.333" stroke="#0000ff" stroke-linecap="round" stroke-width="0.5" fill="none"/>
   <polyline stroke-linejoin="round" points="291.608,67.3613 291.036,69.1245 289.536,70.2144 287.682,70.2144 286.182,69.1245 285.608,67.3613 286.182,65.5981 287.682,64.5083 289.536,64.5083 291.036,65.5981 291.608,67.3613" stroke="#0000ff" stroke-linecap="round" stroke-width="0.5" fill="none"/>
   <polyline stroke-linejoin="round" points="318.913,146.558 318.339,148.321 316.839,149.411 314.985,149.411 313.485,148.321 312.913,146.558 313.485,144.794 314.985,143.705 316.839,143.705 318.339,144.794 318.913,146.558" stroke="#0000ff" stroke-linecap="round" stroke-width="0.5" fill="none"/>
   <polyline stroke-linejoin="round" points="399.779,301.414 399.206,303.177 397.706,304.267 395.852,304.267 394.352,303.177 393.779,301.414 394.352,299.651 395.852,298.561 397.706,298.561 399.206,299.651 399.779,301.414" stroke="#0000ff" stroke-linecap="round" stroke-width="0.5" fill="none"/>
   <polyline stroke-linejoin="round" points="481.485,220.976 480.912,222.739 479.412,223.829 477.558,223.829 476.058,222.739 475.485,220.976 476.058,219.212 477.558,218.123 479.412,218.123 480.912,219.212 481.485,220.976" stroke="#0000ff" stroke-linecap="round" stroke-width="0.5" fill="none"/>
   <polyline stroke-linejoin="round" points="160.673,196.763 160.1,198.526 158.6,199.616 156.746,199.616 155.246,198.526 154.673,196.763 155.246,194.999 156.746,193.909 158.6,193.909 160.1,194.999 160.673,196.763" stroke="#0000ff" stroke-linecap="round" stroke-width="0.5" fill="none"/>
   <polyline stroke-linejoin="round" points="378.178,251.267 377.605,253.03 376.105,254.12 374.251,254.12 372.751,253.03 372.178,251.267 372.751,249.503 374.251,248.414 376.105,248.414 377.605,249.503 378.178,251.267" stroke="#0000ff" stroke-linecap="round" stroke-width="0.5" fill="none"/>
   <polyline stroke-linejoin="round" points="514.771,331.846 514.197,333.609 512.697,334.699 510.843,334.699 509.343,333.609 508.771,331.846 509.343,330.083 510.843,328.993 512.697,328.993 514.197,330.083 514.771,331.846" stroke="#0000ff" stroke-linecap="round" stroke-width="0.5" fill="none"/>
   <polyline stroke-linejoin="round" points="487.04,113.407 486.467,115.17 484.967,116.26 483.112,116.26 481.612,115.17 481.04,113.407 481.612,111.644 483.112,110.554 484.967,110.554 486.467,111.644 487.04,113.407" stroke="#0000ff" stroke-linecap="round" stroke-width="0.5" fill="none"/>
   <polyline stroke-linejoin="round" points="230.82,51.3145 230.247,53.0776 228.747,54.1675 226.893,54.1675 225.393,53.0776 224.82,51.3145 225.393,49.5508 226.893,48.4609 228.747,48.4609 230.247,49.5508 230.82,51.3145" stroke="#0000ff" stroke-linecap="round" stroke-width="0.5" fill="none"/>
   <polyline stroke-linejoin="round" points="431.574,365.265 431,367.029 429.5,368.118 427.646,368.118 426.146,367.029 425.574,365.265 426.146,363.502 427.646,362.412 429.5,362.412 431,363.502 431.574,365.265" stroke="#0000ff" stroke-linecap="round" stroke-width="0.5" fill="none"/>
   <polyline stroke-linejoin="round" points="383.303,133.92 382.73,135.683 381.23,136.773 379.376,136.773 377.876,135.683 377.303,133.92 377.876,132.156 379.376,131.066 381.23,131.066 382.73,132.156 383.303,133.92" stroke="#0000ff" stroke-linecap="round" stroke-width="0.5" fill="none"/>
   <polyline stroke-linejoin="round" points="450.609,290.453 450.037,292.216 448.537,293.306 446.683,293.306 445.183,292.216 444.609,290.453 445.183,288.689 446.683,287.599 448.537,287.599 450.037,288.689 450.609,290.453" stroke="#0000ff" stroke-linecap="round" stroke-width="0.5" fill="none"/>
   <polyline stroke-linejoin="round" points="502.018,345.531 501.445,347.294 499.945,348.384 498.091,348.384 496.591,347.294 496.018,345.531 496.591,343.768 498.091,342.678 499.945,342.678 501.445,343.768 502.018,345.531" stroke="#0000ff" stroke-linecap="round" stroke-width="0.5" fill="none"/>
   <polyline stroke-linejoin="round" points="455.81,134.647 455.237,136.411 453.737,137.5 451.882,137.5 450.382,136.411 449.81,134.647 450.382,132.884 451.882,131.794 453.737,131.794 455.237,132.884 455.81,134.647" stroke="#0000ff" stroke-linecap="round" stroke-width="0.5" fill="none"/>
   <polyline stroke-linejoin="round" points="269.343,146.606 268.77,148.37 267.27,149.459 265.416,149.459 263.916,148.37 263.343,146.606 263.916,144.843 265.416,143.753 267.27,143.753 268.77,144.843 269.343,146.606" stroke="#0000ff" stroke-linecap="round" stroke-width="0.5" fill="none"/>
   <polyline stroke-linejoin="round" points="382.403,259.822 381.831,261.586 380.331,262.676 378.477,262.676 376.977,261.586 376.403,259.822 376.977,258.059 378.477,256.969 380.331,256.969 381.831,258.059 382.403,259.822" stroke="#0000ff" stroke-linecap="round" stroke-width="0.5" fill="none"/>
   <polyline stroke-linejoin="round" points="150.477,234.188 149.904,235.951 148.404,237.041 146.55,237.041 145.05,235.951 144.477,234.188 145.05,232.424 146.55,231.334 148.404,231.334 149.904,232.424 150.477,234.188" stroke="#0000ff" stroke-linecap="round" stroke-width="0.5" fill="none"/>
   <polyline stroke-linejoin="round" points="228.924,150.999 228.352,152.762 226.852,153.852 224.998,153.852 223.498,152.762 222.924,150.999 223.498,149.235 224.998,148.146 226.852,148.146 228.352,149.235 228.924,150.999" stroke="#0000ff" stroke-linecap="round" stroke-width="0.5" fill="none"/>
   <polyline stroke-linejoin="round" points="191.052,221.746 190.479,223.509 188.979,224.599 187.125,224.599 185.625,223.509 185.052,221.746 185.625,219.983 187.125,218.893 188.979,218.893 190.479,219.983 191.052,221.746" stroke="#0000ff" stroke-linecap="round" stroke-width="0.5" fill="none"/>
   <polyline stroke-linejoin="round" points="372.531,306.397 371.958,308.161 370.458,309.25 368.604,309.25 367.104,308.161 366.531,306.397 367.104,304.634 368.604,303.544 370.458,303.544 371.958,304.634 372.531,306.397" stroke="#0000ff" stroke-linecap="round" stroke-width="0.5" fill="none"/>
   <polyline stroke-linejoin="round" points="479.972,60.8184 479.399,62.582 477.899,63.6719 476.045,63.6719 474.545,62.582 473.972,60.8184 474.545,59.0552 476.045,57.9653 477.899,57.9653 479.399,59.0552 479.972,60.8184" stroke="#0000ff" stroke-linecap="round" stroke-width="0.5" fill="none"/>
   <polyline stroke-linejoin="round" points="498.096,341.182 497.522,342.945 496.022,344.035 494.168,344.035 492.668,342.945 492.096,341.182 492.668,339.418 494.168,338.329 496.022,338.329 497.522,339.418 498.096,341.182" stroke="#0000ff" stroke-linecap="round" stroke-width="0.5" fill="none"/>
   <polyline stroke-linejoin="round" points="473.37,181.78 472.797,183.543 471.297,184.633 469.443,184.633 467.943,183.543 467.37,181.78 467.943,180.016 469.443,178.926 471.297,178.926 472.797,180.016 473.37,181.78" stroke="#0000ff" stroke-linecap="round" stroke-width="0.5" fill="none"/>
   <polyline stroke-linejoin="round" points="522.217,358.843 521.645,360.606 520.145,361.696 518.29,361.696 516.79,360.606 516.217,358.843 516.79,357.08 518.29,355.99 520.145,355.99 521.645,357.08 522.217,358.843" stroke="#0000ff" stroke-linecap="round" stroke-width="0.5" fill="none"/>
   <polyline stroke-linejoin="round" points="262.745,106.154 262.172,107.917 260.672,109.007 258.818,109.007 257.318,107.917 256.745,106.154 257.318,104.391 258.818,103.301 260.672,103.301 262.172,104.391 262.745,106.154" stroke="#0000ff" stroke-linecap="round" stroke-width="0.5" fill="none"/>
   <polyline stroke-linejoin="round" points="206.528,265.569 205.956,267.333 204.456,268.422 202.602,268.422 201.102,267.333 200.528,265.569 201.102,263.806 202.602,262.716 204.456,262.716 205.956,263.806 206.528,265.569" stroke="#0000ff" stroke-linecap="round" stroke-width="0.5" fill="none"/>
   <polyline stroke-linejoin="round" points="449.892,216.314 449.319,218.078 447.819,219.168 445.965,219.168 444.465,218.078 443.892,216.314 444.465,214.551 445.965,213.461 447.819,213.461 449.319,214.551 449.892,216.314" stroke="#0000ff" stroke-linecap="round" stroke-width="0.5" fill="none"/>
   <polyline stroke-linejoin="round" points="182.603,127.448 182.029,129.211 180.529,130.301 178.675,130.301 177.175,129.211 176.603,127.448 177.175,125.685 178.675,124.595 180.529,124.595 182.029,125.685 182.603,127.448" stroke="#0000ff" stroke-linecap="round" stroke-width="0.5" fill="none"/>
   <polyline stroke-linejoin="round" points="304.905,105.696 377.493,83.1528" stroke="#0000ff" stroke-linecap="butt" stroke-width="0.5" fill="none"/>
   <polyline stroke-linejoin="round" points="205.667,357.214 203.975,351.194" stroke="#0000ff" stroke-linecap="butt" stroke-width="0.5" fill="none"/>
   <polyline stroke-linejoin="round" points="371.183,62.0371 377.727,62.2661" stroke="#0000ff" stroke-linecap="butt" stroke-width="0.5" fill="none"/>
   <polyline stroke-linejoin="round" points="180.611,70.9214 187.183,66.54" stroke="#0000ff" stroke-linecap="butt" stroke-width="0.5" fill="none"/>
   <polyline stroke-linejoin="round" points="410.914,268.222 411.686,269.293" stroke="#0000ff" stroke-linecap="butt" stroke-width="0.5" fill="none"/>
   <polyline stroke-linejoin="round" points="394.147,242.228 395.594,242.873" stroke="#0000ff" stroke-linecap="butt" stroke-width="0.5" fill="none"/>
   <polyline stroke-linejoin="round" points="254.068,248.173 255.539,244.146" stroke="#0000ff" stroke-linecap="butt" stroke-width="0.5" fill="none"/>
   <polyline stroke-linejoin="round" points="510.161,156.955 514.683,161.382" stroke="#0000ff" stroke-linecap="butt" stroke-width="0.5" fill="none"/>
   <polyline stroke-linejoin="round" points="273.991,382.404 271.565,378.841" stroke="#0000ff" stroke-linecap="butt" stroke-width="0.5" fill="none"/>
   <polyline stroke-linejoin="round" points="452.565,68.4565 459.444,71.0723" stroke="#0000ff" stroke-linecap="butt" stroke-width="0.5" fill="none"/>
   <polyline stroke-linejoin="round" points="246.796,72.8555 252.854,70.1597" stroke="#0000ff" stroke-linecap="butt" stroke-width="0.5" fill="none"/>
   <polyline stroke-linejoin="round" points="159.976,263.333 161.456,255.381" stroke="#0000ff" stroke-linecap="butt" stroke-width="0.5" fill="none"/>
   <polyline stroke-linejoin="round" points="288.608,67.3613 294.72,65.6929" stroke="#0000ff" stroke-linecap="butt" stroke-width="0.5" fill="none"/>
   <polyline stroke-linejoin="round" points="315.913,146.558 319.917,145.405" stroke="#0000ff" stroke-linecap="butt" stroke-width="0.5" fill="none"/>
   <polyline stroke-linejoin="round" points="396.779,301.414 396.612,301.924" stroke="#0000ff" stroke-linecap="butt" stroke-width="0.5" fill="none"/>
   <polyline stroke-linejoin="round" points="478.485,220.976 480.847,224.356" stroke="#0000ff" stroke-linecap="butt" stroke-width="0.5" fill="none"/>
   <polyline stroke-linejoin="round" points="157.673,196.763 161.105,190.045" stroke="#0000ff" stroke-linecap="butt" stroke-width="0.5" fill="none"/>
   <polyline stroke-linejoin="round" points="375.178,251.267 376.327,251.249" stroke="#0000ff" stroke-linecap="butt" stroke-width="0.5" fill="none"/>
   <polyline stroke-linejoin="round" points="511.771,331.846 511.098,335.762" stroke="#0000ff" stroke-linecap="butt" stroke-width="0.5" fill="none"/>
   <polyline stroke-linejoin="round" points="484.04,113.407 489.795,117.021" stroke="#0000ff" stroke-linecap="butt" stroke-width="0.5" fill="none"/>
   <polyline stroke-linejoin="round" points="227.82,51.3145 234.516,48.2354" stroke="#0000ff" stroke-linecap="butt" stroke-width="0.5" fill="none"/>
   <polyline stroke-linejoin="round" points="428.574,365.265 426.692,366.562" stroke="#0000ff" stroke-linecap="butt" stroke-width="0.5" fill="none"/>
   <polyline stroke-linejoin="round" points="380.303,133.92 384.827,134.439" stroke="#0000ff" stroke-linecap="butt" stroke-width="0.5" fill="none"/>
   <polyline stroke-linejoin="round" points="447.609,290.453 447.841,292.581" stroke="#0000ff" stroke-linecap="butt" stroke-width="0.5" fill="none"/>
   <polyline stroke-linejoin="round" points="499.018,345.531 497.875,348.999" stroke="#0000ff" stroke-linecap="butt" stroke-width="0.5" fill="none"/>
   <polyline stroke-linejoin="round" points="452.81,134.647 457.79,137.251" stroke="#0000ff" stroke-linecap="butt" stroke-width="0.5" fill="none"/>
   <polyline stroke-linejoin="round" points="266.343,146.606 270.615,144.105" stroke="#0000ff" stroke-linecap="butt" stroke-width="0.5" fill="none"/>
   <polyline stroke-linejoin="round" points="379.403,259.822 380.329,259.908" stroke="#0000ff" stroke-linecap="butt" stroke-width="0.5" fill="none"/>
   <polyline stroke-linejoin="round" points="147.477,234.188 150.095,225.797" stroke="#0000ff" stroke-linecap="butt" stroke-width="0.5" fill="none"/>
   <polyline stroke-linejoin="round" points="225.924,150.999 230.389,147.24" stroke="#0000ff" stroke-linecap="butt" stroke-width="0.5" fill="none"/>
   <polyline stroke-linejoin="round" points="188.052,221.746 190.669,215.867" stroke="#0000ff" stroke-linecap="butt" stroke-width="0.5" fill="none"/>
   <polyline stroke-linejoin="round" points="369.531,306.397 369.171,306.034" stroke="#0000ff" stroke-linecap="butt" stroke-width="0.5" fill="none"/>
   <polyline stroke-linejoin="round" points="476.972,60.8184 483.969,64.1743" stroke="#0000ff" stroke-linecap="butt" stroke-width="0.5" fill="none"/>
   <polyline stroke-linejoin="round" points="495.096,341.182 493.975,344.546" stroke="#0000ff" stroke-linecap="butt" stroke-width="0.5" fill="none"/>
   <polyline stroke-linejoin="round" points="470.37,181.78 473.955,184.975" stroke="#0000ff" stroke-linecap="butt" stroke-width="0.5" fill="none"/>
   <polyline stroke-linejoin="round" points="519.217,358.843 517.952,362.821" stroke="#0000ff" stroke-linecap="butt" stroke-width="0.5" fill="none"/>
   <polyline stroke-linejoin="round" points="259.745,106.154 264.996,103.717" stroke="#0000ff" stroke-linecap="butt" stroke-width="0.5" fill="none"/>
   <polyline stroke-linejoin="round" points="203.528,265.569 204.842,259.36" stroke="#0000ff" stroke-linecap="butt" stroke-width="0.5" fill="none"/>
   <polyline stroke-linejoin="round" points="446.893,216.314 449.297,218.729" stroke="#0000ff" stroke-linecap="butt" stroke-width="0.5" fill="none"/>
   <polyline stroke-linejoin="round" points="179.603,127.448 184.891,122.466" stroke="#0000ff" stroke-linecap="butt" stroke-width="0.5" fill="none"/>
  </g>
 </g>
</svg>
